<svg width="707" height="332" xmlns="http://www.w3.org/2000/svg" xmlns:xlink="http://www.w3.org/1999/xlink" overflow="hidden"><defs><clipPath id="clip0"><rect x="233" y="115" width="707" height="332"/></clipPath><clipPath id="clip1"><rect x="234" y="116" width="706" height="331"/></clipPath><clipPath id="clip2"><rect x="233" y="116" width="707" height="331"/></clipPath></defs><g clip-path="url(#clip0)" transform="translate(-233 -115)"><g clip-path="url(#clip1)"><g clip-path="url(#clip2)"><path d="M636.889 428.284C629.123 451.941 635.523 475.24 651.127 480.345 666.802 485.451 685.714 470.494 693.48 446.836 701.246 423.25 694.847 399.88 679.243 394.775 663.639 389.669 644.655 404.626 636.889 428.284ZM711.889 337.895 711.889 233.269C711.889 209.468 692.617 194.223 668.744 194.223L50.3356 194.223C26.534 194.223 7.1908 209.468 7.1908 233.269L7.1908 481.639C7.1908 505.441 26.534 524.784 50.3356 524.784L668.744 524.784C692.617 524.784 711.889 505.441 711.889 481.639L711.889 407.718C711.745 409.084 711.673 410.379 711.529 411.745 711.385 412.895 711.242 413.686 711.026 414.334 712.967 426.846 711.961 441.155 707.071 455.321 695.494 488.686 667.809 508.461 645.23 499.401 622.651 490.412 613.734 455.968 625.312 422.603 631.424 404.986 642.066 391.323 654.075 383.557 663.279 376.87 677.876 368.169 677.876 368.169 677.876 368.169 626.534 284.827 623.802 278.428 621.069 272.028 615.676 252.685 623.586 241.251 659.108 281.807 699.664 331.136 699.664 331.136L711.889 337.895Z" fill="#8FAADC" transform="matrix(-1.00137 1.22632e-16 -1.22465e-16 -1 947.582 640.662)"/></g></g><text fill="#EDEDED" font-family="Aharoni,Aharoni_MSFontService,sans-serif" font-weight="700" font-size="43" transform="translate(519.855 403)">A<tspan x="42.1667" y="0">Couper</tspan><tspan x="199.333" y="0">Compan</tspan><tspan x="366.167" y="0">y</tspan></text></g></svg>