<svg width="420" height="205" xmlns="http://www.w3.org/2000/svg" xmlns:xlink="http://www.w3.org/1999/xlink" overflow="hidden"><defs><filter id="fx0" x="-10%" y="-10%" width="120%" height="120%" filterUnits="userSpaceOnUse" primitiveUnits="userSpaceOnUse"><feComponentTransfer color-interpolation-filters="sRGB"><feFuncR type="discrete" tableValues="0 0"/><feFuncG type="discrete" tableValues="0 0"/><feFuncB type="discrete" tableValues="0 0"/><feFuncA type="linear" slope="0.109804" intercept="0"/></feComponentTransfer><feGaussianBlur stdDeviation="2.22222 2.22222"/></filter><clipPath id="clip1"><rect x="398" y="155" width="420" height="205"/></clipPath><clipPath id="clip2"><rect x="-2" y="-2" width="426" height="210"/></clipPath><clipPath id="clip3"><rect x="0" y="0" width="422" height="206"/></clipPath><clipPath id="clip4"><rect x="8" y="8" width="406" height="190"/></clipPath><clipPath id="clip5"><rect x="8" y="8" width="406" height="190"/></clipPath><clipPath id="clip6"><rect x="4" y="-104" width="415" height="414"/></clipPath><clipPath id="clip7"><rect x="409" y="164" width="398" height="187"/></clipPath><clipPath id="clip8"><rect x="408" y="164" width="399" height="187"/></clipPath><clipPath id="clip9"><rect x="405" y="54" width="407" height="406"/></clipPath></defs><g clip-path="url(#clip1)" transform="translate(-398 -155)"><g clip-path="url(#clip2)" filter="url(#fx0)" transform="translate(397 154)"><g clip-path="url(#clip3)"><g clip-path="url(#clip4)"><g clip-path="url(#clip5)"><g clip-path="url(#clip6)"><path d="M366.153 246.224C361.688 259.825 365.368 273.22 374.339 276.155 383.351 279.09 394.223 270.491 398.688 256.89 403.153 243.33 399.474 229.895 390.503 226.96 381.532 224.024 370.618 232.623 366.153 246.224ZM409.271 194.259 409.271 134.109C409.271 120.425 398.192 111.661 384.467 111.661L28.9384 111.661C15.2547 111.661 4.13405 120.425 4.13405 134.109L4.13405 276.899C4.13405 290.583 15.2547 301.703 28.9384 301.703L384.467 301.703C398.192 301.703 409.271 290.583 409.271 276.899L409.271 234.401C409.189 235.186 409.147 235.93 409.065 236.716 408.982 237.377 408.899 237.832 408.775 238.204 409.891 245.397 409.313 253.624 406.502 261.768 399.846 280.95 383.93 292.319 370.949 287.11 357.968 281.942 352.841 262.14 359.497 242.958 363.011 232.83 369.13 224.975 376.034 220.51 381.325 216.666 389.717 211.664 389.717 211.664 389.717 211.664 360.2 163.75 358.629 160.071 357.058 156.391 353.958 145.271 358.505 138.698 378.927 162.014 402.243 190.373 402.243 190.373L409.271 194.259Z" fill="#FFFFFF" transform="matrix(-1.00155 1.22655e-16 -1.22465e-16 -1 418.34 309.773)"/></g></g></g></g></g><g clip-path="url(#clip7)"><g clip-path="url(#clip8)"><g clip-path="url(#clip9)"><path d="M358.974 241.396C354.596 254.731 358.204 267.862 366.999 270.74 375.834 273.618 386.493 265.187 390.871 251.853 395.248 238.559 391.641 225.387 382.846 222.509 374.051 219.632 363.351 228.062 358.974 241.396ZM401.246 190.45 401.246 131.479C401.246 118.064 390.384 109.471 376.928 109.471L28.371 109.471C14.9555 109.471 4.05299 118.064 4.05299 131.479L4.05299 271.47C4.05299 284.885 14.9555 295.788 28.371 295.788L376.928 295.788C390.384 295.788 401.246 284.885 401.246 271.47L401.246 229.805C401.165 230.575 401.125 231.304 401.044 232.074 400.963 232.723 400.882 233.169 400.76 233.534 401.854 240.586 401.287 248.651 398.531 256.636 392.006 275.441 376.402 286.587 363.675 281.48 350.949 276.414 345.923 257 352.448 238.194 355.893 228.265 361.892 220.564 368.66 216.187 373.848 212.417 382.076 207.513 382.076 207.513 382.076 207.513 353.137 160.539 351.597 156.932 350.057 153.325 347.017 142.422 351.476 135.978 371.497 158.837 394.356 186.64 394.356 186.64L401.246 190.45Z" fill="#FFFFFF" transform="matrix(-1.00155 1.22655e-16 -1.22465e-16 -1 811.274 459.719)"/></g></g></g></g></svg>