<svg width="274" height="444" xmlns="http://www.w3.org/2000/svg" xmlns:xlink="http://www.w3.org/1999/xlink" overflow="hidden"><defs><clipPath id="clip0"><rect x="440" y="85" width="274" height="444"/></clipPath><clipPath id="clip1"><rect x="449" y="90" width="259" height="434"/></clipPath><clipPath id="clip2"><rect x="449" y="90" width="259" height="434"/></clipPath><clipPath id="clip3"><rect x="296" y="87" width="563" height="442"/></clipPath></defs><g clip-path="url(#clip0)" transform="translate(-440 -85)"><path d="M698.107 86.5C706.609 86.5 713.5 93.3915 713.5 101.893L713.5 513.107C713.5 521.608 706.609 528.5 698.107 528.5L457.893 528.5C449.392 528.5 442.5 521.608 442.5 513.107L442.5 101.893C442.5 93.3915 449.392 86.5 457.893 86.5Z" stroke="#8FAADC" stroke-width="1.33333" stroke-miterlimit="8" fill="#8FAADC" fill-rule="evenodd"/><g clip-path="url(#clip1)"><g clip-path="url(#clip2)"><g clip-path="url(#clip3)"><path d="M391.147 263.032C386.378 277.561 390.308 291.87 399.891 295.005 409.519 298.141 421.134 288.955 425.903 274.426 430.673 259.94 426.742 245.588 417.159 242.452 407.576 239.317 395.917 248.502 391.147 263.032ZM437.209 207.52 437.209 143.263C437.209 128.645 425.373 119.283 410.711 119.283L30.9137 119.283C16.296 119.283 4.41625 128.645 4.41625 143.263L4.41625 295.8C4.41625 310.418 16.296 322.298 30.9137 322.298L410.711 322.298C425.373 322.298 437.209 310.418 437.209 295.8L437.209 250.401C437.12 251.24 437.076 252.035 436.988 252.874 436.9 253.581 436.811 254.067 436.679 254.464 437.871 262.149 437.253 270.937 434.25 279.637 427.14 300.128 410.137 312.273 396.27 306.709 382.403 301.188 376.927 280.034 384.037 259.543 387.791 248.723 394.327 240.332 401.702 235.563 407.355 231.456 416.32 226.112 416.32 226.112 416.32 226.112 384.788 174.928 383.11 170.997 381.431 167.067 378.119 155.187 382.977 148.165 404.793 173.073 429.701 203.368 429.701 203.368L437.209 207.52Z" fill="#FFFFFF" transform="matrix(-1.83697e-16 -1 1.273 -2.33847e-16 296.81 528.65)"/></g></g></g></g></svg>