<svg width="60" height="28" xmlns="http://www.w3.org/2000/svg" xmlns:xlink="http://www.w3.org/1999/xlink" overflow="hidden"><defs><clipPath id="clip0"><rect x="461" y="270" width="60" height="28"/></clipPath><clipPath id="clip1"><rect x="462" y="270" width="52" height="24"/></clipPath><clipPath id="clip2"><rect x="462" y="270" width="52" height="24"/></clipPath><clipPath id="clip3"><rect x="461" y="255" width="54" height="54"/></clipPath><clipPath id="clip4"><rect x="462" y="270" width="52" height="24"/></clipPath><clipPath id="clip5"><rect x="461" y="270" width="53" height="24"/></clipPath><clipPath id="clip6"><rect x="461" y="255" width="54" height="54"/></clipPath></defs><g clip-path="url(#clip0)" transform="translate(-461 -270)"><g clip-path="url(#clip1)"><g clip-path="url(#clip2)"><g clip-path="url(#clip3)"><path d="M46.3192 31.1479C45.7544 32.8685 46.2198 34.5629 47.3547 34.9342 48.4947 35.3055 49.8701 34.2177 50.4349 32.4972 50.9997 30.7818 50.5343 29.0822 49.3995 28.7109 48.2646 28.3396 46.884 29.4274 46.3192 31.1479ZM51.7737 24.5742 51.7737 16.965C51.7737 15.234 50.3722 14.1253 48.6359 14.1253L3.66077 14.1253C1.92975 14.1253 0.522967 15.234 0.522967 16.965L0.522967 35.0283C0.522967 36.7593 1.92975 38.1661 3.66077 38.1661L48.6359 38.1661C50.3722 38.1661 51.7737 36.7593 51.7737 35.0283L51.7737 29.6522C51.7633 29.7516 51.758 29.8457 51.7476 29.9451 51.7371 30.0288 51.7267 30.0863 51.711 30.1334 51.8522 31.0433 51.779 32.084 51.4233 33.1143 50.5814 35.5408 48.5679 36.979 46.9258 36.3201 45.2837 35.6663 44.6352 33.1613 45.4772 30.7348 45.9217 29.4535 46.6957 28.4599 47.5691 27.8951 48.2385 27.4087 49.3001 26.7759 49.3001 26.7759 49.3001 26.7759 45.5661 20.7147 45.3674 20.2493 45.1687 19.7838 44.7764 18.3771 45.3517 17.5455 47.9352 20.4951 50.8847 24.0826 50.8847 24.0826L51.7737 24.5742Z" fill="#FFFFFF" transform="matrix(1.01413 -1.24195e-16 -1.22465e-16 -1 461.442 308.157)"/></g></g></g><g clip-path="url(#clip4)"><g clip-path="url(#clip5)"><g clip-path="url(#clip6)"><path d="M46.3192 31.1479C45.7544 32.8685 46.2198 34.5629 47.3547 34.9342 48.4947 35.3055 49.8701 34.2177 50.4349 32.4972 50.9997 30.7818 50.5343 29.0822 49.3995 28.7109 48.2646 28.3396 46.884 29.4274 46.3192 31.1479ZM51.7737 24.5742 51.7737 16.965C51.7737 15.234 50.3722 14.1253 48.6359 14.1253L3.66077 14.1253C1.92975 14.1253 0.522967 15.234 0.522967 16.965L0.522967 35.0283C0.522967 36.7593 1.92975 38.1661 3.66077 38.1661L48.6359 38.1661C50.3722 38.1661 51.7737 36.7593 51.7737 35.0283L51.7737 29.6522C51.7633 29.7516 51.758 29.8457 51.7476 29.9451 51.7371 30.0288 51.7267 30.0863 51.711 30.1334 51.8522 31.0433 51.779 32.084 51.4233 33.1143 50.5814 35.5408 48.5679 36.979 46.9258 36.3201 45.2837 35.6663 44.6352 33.1613 45.4772 30.7348 45.9217 29.4535 46.6957 28.4599 47.5691 27.8951 48.2385 27.4087 49.3001 26.7759 49.3001 26.7759 49.3001 26.7759 45.5661 20.7147 45.3674 20.2493 45.1687 19.7838 44.7764 18.3771 45.3517 17.5455 47.9352 20.4951 50.8847 24.0826 50.8847 24.0826L51.7737 24.5742Z" stroke="#EDEDED" stroke-width="0.341808" fill="#8FAADC" transform="matrix(-1.01413 1.24195e-16 -1.22465e-16 -1 514.558 308.157)"/></g></g></g><text fill="#EDEDED" font-family="Aharoni,Aharoni_MSFontService,sans-serif" font-weight="700" font-size="7" transform="translate(487.432 290)">Couper</text></g></svg>