<svg width="358" height="317" xmlns="http://www.w3.org/2000/svg" xmlns:xlink="http://www.w3.org/1999/xlink" overflow="hidden"><defs><clipPath id="clip0"><rect x="415" y="172" width="358" height="317"/></clipPath><clipPath id="clip1"><path d="M771.82 298.318 504.192 487.884 415.461 362.614 683.089 173.048Z" fill-rule="evenodd" clip-rule="evenodd"/></clipPath><clipPath id="clip2"><path d="M771.82 298.318 504.192 487.884 415.461 362.614 683.089 173.048Z" fill-rule="evenodd" clip-rule="evenodd"/></clipPath><clipPath id="clip3"><path d="M827.035 370.177 554.077 563.519 360.729 290.552 633.687 97.2104Z" fill-rule="evenodd" clip-rule="evenodd"/></clipPath></defs><g clip-path="url(#clip0)" transform="translate(-415 -172)"><g clip-path="url(#clip1)"><g clip-path="url(#clip2)"><g clip-path="url(#clip3)"><path d="M296.263 199.226C292.65 210.23 295.627 221.068 302.886 223.443 310.178 225.818 318.975 218.86 322.588 207.856 326.2 196.884 323.223 186.013 315.965 183.638 308.706 181.263 299.875 188.221 296.263 199.226ZM331.151 157.179 331.151 108.51C331.151 97.4386 322.186 90.3473 311.081 90.3473L23.4147 90.3473C12.3429 90.3473 3.34496 97.4386 3.34496 108.51L3.34496 224.045C3.34496 235.117 12.3429 244.115 23.4147 244.115L311.081 244.115C322.186 244.115 331.151 235.117 331.151 224.045L331.151 189.659C331.084 190.295 331.05 190.897 330.983 191.532 330.917 192.067 330.85 192.435 330.749 192.736 331.652 198.557 331.184 205.213 328.91 211.803 323.524 227.323 310.646 236.522 300.143 232.307 289.64 228.126 285.492 212.104 290.877 196.583 293.721 188.388 298.671 182.033 304.257 178.42 308.539 175.309 315.329 171.262 315.329 171.262 315.329 171.262 291.446 132.494 290.175 129.517 288.904 126.54 286.395 117.542 290.075 112.223 306.599 131.089 325.464 154.035 325.464 154.035L331.151 157.179Z" stroke="#EDEDED" stroke-width="1.3639" fill="#8FAADC" transform="matrix(-0.816029 0.57801 -0.578028 -0.816055 827.035 370.177)"/></g></g></g><text fill="#EDEDED" font-family="Aharoni,Aharoni_MSFontService,sans-serif" font-weight="700" font-size="43" transform="matrix(0.816029 -0.57801 0.57801 0.816029 507.846 406)">Out<tspan x="86.1683" y="-0.237568">of</tspan><tspan x="138.801" y="0.280251">stoc</tspan><tspan x="216.752" y="0.349426">k</tspan></text></g></svg>